<svg width="32" height="32" viewBox="0 0 32 32" fill="none" xmlns="http://www.w3.org/2000/svg">
<path d="M7 12C6.99924 11.8684 7.02446 11.7379 7.07423 11.6161C7.12399 11.4943 7.19732 11.3834 7.29 11.29C7.38296 11.1963 7.49357 11.1219 7.61542 11.0711C7.73728 11.0203 7.86799 10.9942 8 10.9942C8.13201 10.9942 8.26272 11.0203 8.38458 11.0711C8.50644 11.1219 8.61704 11.1963 8.71 11.29L16 18.59L23.29 11.29C23.4783 11.1017 23.7337 10.9959 24 10.9959C24.1319 10.9959 24.2624 11.0219 24.3842 11.0723C24.5061 11.1228 24.6168 11.1968 24.71 11.29C24.8032 11.3832 24.8772 11.4939 24.9277 11.6158C24.9781 11.7376 25.0041 11.8681 25.0041 12C25.0041 12.2663 24.8983 12.5217 24.71 12.71L16.71 20.71C16.617 20.8037 16.5064 20.8781 16.3846 20.9289C16.2627 20.9797 16.132 21.0058 16 21.0058C15.868 21.0058 15.7373 20.9797 15.6154 20.9289C15.4936 20.8781 15.383 20.8037 15.29 20.71L7.29 12.71C7.19732 12.6166 7.12399 12.5057 7.07423 12.3839C7.02446 12.2621 6.99924 12.1316 7 12Z" fill="black" fill-opacity="0.78"/>
</svg>
