<svg width="11" height="17" viewBox="0 0 11 17" fill="none" xmlns="http://www.w3.org/2000/svg">
<path d="M1.87501 16.6562C1.75574 16.6569 1.63751 16.6341 1.52709 16.589C1.41668 16.5439 1.31625 16.4774 1.23157 16.3934C1.14663 16.3092 1.07921 16.2089 1.0332 16.0985C0.987189 15.9881 0.963501 15.8696 0.963501 15.75C0.963501 15.6303 0.987189 15.5119 1.0332 15.4015C1.07921 15.291 1.14663 15.1908 1.23157 15.1065L7.84719 8.49998L1.23157 1.89342C1.06092 1.72277 0.965048 1.49132 0.965048 1.24998C0.965048 1.13049 0.988584 1.01216 1.03431 0.901759C1.08004 0.791358 1.14707 0.691045 1.23157 0.606547C1.31607 0.52205 1.41638 0.455023 1.52678 0.409294C1.63718 0.363564 1.75551 0.340027 1.87501 0.340027C2.11634 0.340027 2.34779 0.435897 2.51844 0.606547L9.76844 7.85655C9.85338 7.94079 9.9208 8.04103 9.96681 8.15146C10.0128 8.2619 10.0365 8.38035 10.0365 8.49998C10.0365 8.61962 10.0128 8.73807 9.96681 8.84851C9.9208 8.95894 9.85338 9.05917 9.76844 9.14342L2.51844 16.3934C2.43376 16.4774 2.33334 16.5439 2.22292 16.589C2.11251 16.6341 1.99427 16.6569 1.87501 16.6562Z" fill="white"/>
</svg>
