<svg width="36" height="27" viewBox="0 0 36 27" fill="none" xmlns="http://www.w3.org/2000/svg">
<path d="M13.231 0.00465185C13.231 0.00465185 8.24807 0.352012 4.98927 3.00684C4.97398 3.01304 4.95564 3.02234 4.94036 3.03165C4.37481 3.56199 3.94988 4.38387 3.42407 5.56241C2.89826 6.74096 2.34188 8.25756 1.83441 9.95404C0.822533 13.3501 0.000191262 17.5184 0.000191262 21.4417C-0.00286558 21.5813 0.030762 21.7178 0.0980163 21.8387C1.24135 23.8764 3.34459 25.1076 5.3072 25.883C7.26982 26.6583 9.08264 26.9685 10.0028 26.9995C10.2627 27.0088 10.5103 26.8878 10.6631 26.677L12.5707 23.9973C14.1084 24.3664 15.912 24.6176 18 24.6176C20.088 24.6176 21.8916 24.3664 23.4293 23.9973L25.3369 26.677C25.4897 26.8878 25.7374 27.0088 25.9972 26.9995C26.9174 26.9685 28.7302 26.6583 30.6928 25.883C32.6554 25.1076 34.7587 23.8764 35.902 21.8387C35.9692 21.7178 36.0029 21.5813 35.9998 21.4417C35.9998 17.5184 35.1775 13.3501 34.1656 9.95404C33.6581 8.25756 33.1017 6.74096 32.5759 5.56241C32.0501 4.38387 31.6252 3.56199 31.0596 3.03165C31.0444 3.02234 31.026 3.01304 31.0107 3.00684C27.7519 0.352012 22.769 0.00465185 22.769 0.00465185C22.7109 -0.00155062 22.6559 -0.00155062 22.5978 0.00465185C22.3257 0.041869 22.0964 0.221752 21.9864 0.476069C21.9864 0.476069 21.7204 1.06844 21.5462 1.91513C20.0207 1.66702 18.7367 1.59258 18 1.59258C17.2633 1.59258 15.9793 1.66702 14.4538 1.91513C14.2796 1.06844 14.0136 0.476069 14.0136 0.476069C13.8791 0.165926 13.5642 -0.0232608 13.231 0.00465185ZM12.7419 1.71664C12.8 1.87792 12.8397 2.02989 12.8886 2.21287C11.1247 2.62846 9.19269 3.30767 7.38598 4.4459C7.10168 4.56686 6.9152 4.84598 6.90603 5.15923C6.89991 5.46937 7.07417 5.7578 7.3493 5.89427C7.62749 6.02763 7.95765 5.98731 8.19304 5.78572C11.8187 3.50617 16.4317 3.18052 18 3.18052C19.5683 3.18052 24.1813 3.50617 27.807 5.78572C28.0424 5.98731 28.3725 6.02763 28.6507 5.89427C28.9258 5.7578 29.1001 5.46937 29.094 5.15923C29.0848 4.84598 28.8983 4.56686 28.614 4.4459C26.8073 3.30767 24.8753 2.62846 23.1114 2.21287C23.1603 2.02989 23.2 1.87792 23.2581 1.71664C24.1508 1.82829 27.6205 2.30281 29.9836 4.19779C30.1364 4.34045 30.6683 5.13442 31.1575 6.23232C31.6466 7.33023 32.1602 8.75999 32.6493 10.4006C33.6031 13.6013 34.3735 17.5494 34.4102 21.1688C33.5206 22.6296 31.8514 23.7151 30.1303 24.3943C28.5651 25.0115 27.1038 25.2875 26.3396 25.3619L25.0189 23.5507C25.6915 23.3305 26.2968 23.0917 26.8287 22.856C28.8036 21.9752 29.8613 21.0448 29.8613 21.0448C30.1853 20.7501 30.2128 20.2446 29.9224 19.9158C29.632 19.5871 29.1337 19.5592 28.8097 19.8538C28.8097 19.8538 27.9904 20.6137 26.1928 21.4169C25.5325 21.7116 24.7316 22.0031 23.8206 22.2605C23.6097 22.2357 23.3987 22.2977 23.2336 22.4342C21.7754 22.794 20.0421 23.0297 18 23.0297C15.9426 23.0297 14.2062 22.7723 12.7419 22.4094C12.5768 22.2977 12.3751 22.2512 12.1794 22.2853C11.2654 22.0279 10.4705 21.7116 9.80715 21.4169C8.00962 20.6137 7.19033 19.8538 7.19033 19.8538C7.01302 19.6863 6.76846 19.615 6.53001 19.6553C6.22737 19.7018 5.97669 19.922 5.89415 20.2229C5.80855 20.5206 5.90638 20.8432 6.13871 21.0448C6.13871 21.0448 7.19645 21.9752 9.17129 22.856C9.70321 23.0917 10.3085 23.3305 10.9811 23.5507L9.66041 25.3619C8.89616 25.2875 7.4349 25.0115 5.86969 24.3943C4.14858 23.7151 2.47944 22.6296 1.58985 21.1688C1.62653 17.5494 2.39691 13.6013 3.3507 10.4006C3.83982 8.75999 4.35341 7.33023 4.84253 6.23232C5.33166 5.13442 5.86358 4.34045 6.01643 4.19779C8.37952 2.30281 11.8492 1.82829 12.7419 1.71664ZM12.9131 11.1202C10.9169 11.1202 9.3914 12.9593 9.3914 15.09C9.3914 17.2207 10.9169 19.0598 12.9131 19.0598C14.9093 19.0598 16.4348 17.2207 16.4348 15.09C16.4348 12.9593 14.9093 11.1202 12.9131 11.1202ZM23.0869 11.1202C21.0907 11.1202 19.5652 12.9593 19.5652 15.09C19.5652 17.2207 21.0907 19.0598 23.0869 19.0598C25.0831 19.0598 26.6086 17.2207 26.6086 15.09C26.6086 12.9593 25.0831 11.1202 23.0869 11.1202ZM12.9131 12.7081C13.9433 12.7081 14.8696 13.713 14.8696 15.09C14.8696 16.467 13.9433 17.4719 12.9131 17.4719C11.8829 17.4719 10.9566 16.467 10.9566 15.09C10.9566 13.713 11.8829 12.7081 12.9131 12.7081ZM23.0869 12.7081C24.1171 12.7081 25.0434 13.713 25.0434 15.09C25.0434 16.467 24.1171 17.4719 23.0869 17.4719C22.0567 17.4719 21.1304 16.467 21.1304 15.09C21.1304 13.713 22.0567 12.7081 23.0869 12.7081Z" fill="white"/>
</svg>
