<svg width="95" height="95" viewBox="0 0 95 95" fill="none" xmlns="http://www.w3.org/2000/svg">
<circle cx="47.5" cy="47.5" r="47.5" fill="url(#paint0_radial_4_78)"/>
<circle cx="47.4987" cy="47.5" r="44.3097" fill="white"/>
<g clip-path="url(#clip0_4_78)">
<path d="M47.5087 42.3853H52.2663L50.0498 33.3306H47.5087V42.3853Z" fill="#DADADA"/>
<path d="M47.5087 33.3304H44.9683L42.7512 42.3852H47.5087V33.3304Z" fill="#EDEDED"/>
<path d="M21.8184 57.1679V53.4898C21.4398 53.8051 20.9846 54.0627 20.452 54.2626C19.9193 54.4616 19.2538 54.5618 18.4556 54.5618C17.7267 54.5618 17.0944 54.48 16.5584 54.3146C16.0224 54.1497 15.5772 53.8906 15.2237 53.5371C14.8697 53.1836 14.6073 52.735 14.4358 52.1924C14.2637 51.6489 14.1777 50.9991 14.1777 50.2424V46.4693H17.9612V49.2229C17.9612 49.6785 17.9891 50.0609 18.0453 50.3686C18.1015 50.6777 18.1975 50.9258 18.3346 51.1148C18.4712 51.3039 18.6531 51.4391 18.8809 51.5194C19.1088 51.6003 19.3909 51.6404 19.727 51.6404C19.951 51.6404 20.1703 51.6106 20.3839 51.5511C20.5976 51.4915 20.797 51.4131 20.9827 51.3143C21.1685 51.2165 21.3335 51.1063 21.4771 50.9835C21.6203 50.861 21.7342 50.733 21.8184 50.6001V46.4693H25.6018V57.1679H21.8184Z" fill="#1D1D1B"/>
<path d="M33.6938 54.9714C34.3314 54.9714 34.8447 54.7686 35.2337 54.3621C35.6227 53.9557 35.8552 53.4131 35.9322 52.7334H31.4554C31.5324 53.4131 31.7669 53.9557 32.1597 54.3621C32.5519 54.7686 33.0633 54.9714 33.6938 54.9714ZM33.6938 48.6659C33.0562 48.6659 32.5467 48.8621 32.1648 49.2548C31.783 49.6476 31.5466 50.1831 31.4554 50.8627H35.9115C35.8344 50.1902 35.6047 49.6561 35.2233 49.26C34.8409 48.8644 34.3314 48.6659 33.6938 48.6659ZM33.6938 46.2805C34.7171 46.2805 35.6118 46.4228 36.3794 46.7059C37.1465 46.9895 37.7854 47.3789 38.2973 47.8728C38.8082 48.3663 39.192 48.9519 39.4477 49.6277C39.7039 50.3041 39.8315 51.031 39.8315 51.8085C39.8315 52.5865 39.7039 53.3134 39.4477 53.9888C39.192 54.6651 38.8082 55.254 38.2973 55.755C37.7854 56.2555 37.1465 56.6478 36.3794 56.9314C35.6118 57.2154 34.7171 57.3572 33.6938 57.3572C32.671 57.3572 31.7759 57.2154 31.0088 56.9314C30.2417 56.6478 29.6041 56.2555 29.096 55.755C28.5879 55.254 28.2065 54.6651 27.9503 53.9888C27.6947 53.3134 27.567 52.5865 27.567 51.8085C27.567 51.031 27.6947 50.3041 27.9503 49.6277C28.2065 48.9519 28.5879 48.3663 29.096 47.8728C29.6041 47.3789 30.2417 46.9895 31.0088 46.7059C31.7759 46.4228 32.671 46.2805 33.6938 46.2805Z" fill="#1D1D1B"/>
<path d="M45.4754 46.4694V51.7667L50.0576 46.4694H53.2206V57.168H49.5418V51.7029L44.9182 57.168H41.7974V46.4694H45.4754Z" fill="#1D1D1B"/>
<path d="M59.4002 53.9628C59.687 54.1306 59.9801 54.2871 60.2775 54.4303C60.5756 54.5744 60.9205 54.6453 61.3126 54.6453C61.6075 54.6453 61.8805 54.5829 62.1321 54.4567C62.3845 54.3301 62.6057 54.1467 62.7947 53.9047C62.9836 53.6632 63.1321 53.3687 63.2413 53.0227C63.3494 52.6754 63.4044 52.2783 63.4044 51.8293C63.4044 51.3113 63.3391 50.8784 63.2098 50.5319C63.08 50.185 62.9138 49.9066 62.7106 49.6968C62.5068 49.486 62.2831 49.3376 62.0375 49.2492C61.7925 49.1618 61.5512 49.1178 61.3126 49.1178C61.046 49.1178 60.8099 49.1476 60.6036 49.2071C60.3959 49.2667 60.2151 49.3376 60.0567 49.4175C59.8993 49.4983 59.7656 49.581 59.6572 49.6647C59.5487 49.7488 59.4629 49.8187 59.4002 49.875V53.9628ZM59.4002 46.4696V47.4362C59.5055 47.3459 59.6416 47.2334 59.81 47.1001C59.9783 46.9673 60.1861 46.8411 60.4353 46.722C60.6837 46.6029 60.9801 46.4999 61.3229 46.412C61.666 46.3245 62.0662 46.2806 62.5214 46.2806C62.8783 46.2806 63.2484 46.3245 63.6298 46.412C64.0123 46.4999 64.3827 46.636 64.7439 46.8218C65.1044 47.0075 65.4444 47.2462 65.7638 47.5364C66.0824 47.8271 66.3625 48.1739 66.6046 48.5766C66.8456 48.9798 67.0367 49.4439 67.1771 49.9695C67.3174 50.4951 67.3869 51.0873 67.3869 51.7457C67.3869 52.2084 67.3437 52.6668 67.2554 53.1225C67.1686 53.5776 67.0353 54.0134 66.8559 54.4303C66.678 54.8471 66.45 55.2342 66.1735 55.5915C65.8967 55.9493 65.5677 56.2589 65.1853 56.5217C64.8035 56.7849 64.3714 56.9896 63.8879 57.1366C63.4044 57.2836 62.8613 57.3573 62.2587 57.3573C61.8518 57.3573 61.4983 57.3294 61.197 57.2732C60.8961 57.2169 60.6309 57.1489 60.4037 57.068C60.1758 56.9872 59.9829 56.9003 59.8259 56.8053C59.6678 56.7103 59.526 56.6257 59.4002 56.5481V62.0336H55.6168V46.4696H59.4002Z" fill="#1D1D1B"/>
<path d="M75.0277 54.9714C75.6657 54.9714 76.1783 54.7686 76.5679 54.3621C76.9564 53.9557 77.1889 53.4131 77.2666 52.7334H72.7895C72.8661 53.4131 73.1007 53.9557 73.4935 54.3621C73.8863 54.7686 74.3971 54.9714 75.0277 54.9714ZM75.0277 48.6659C74.3903 48.6659 73.8806 48.8621 73.4992 49.2548C73.1167 49.6476 72.8799 50.1831 72.7895 50.8627H77.2453C77.1677 50.1902 76.9383 49.6561 76.5569 49.26C76.1751 48.8644 75.6657 48.6659 75.0277 48.6659ZM75.0277 46.2805C76.0507 46.2805 76.9461 46.4228 77.7136 46.7059C78.4803 46.9895 79.1191 47.3789 79.6306 47.8728C80.1424 48.3663 80.5256 48.9519 80.7819 49.6277C81.0375 50.3041 81.1658 51.031 81.1658 51.8085C81.1658 52.5865 81.0375 53.3134 80.7819 53.9888C80.5256 54.6651 80.1424 55.254 79.6306 55.755C79.1191 56.2555 78.4803 56.6478 77.7136 56.9314C76.9461 57.2154 76.0507 57.3572 75.0277 57.3572C74.0054 57.3572 73.11 57.2154 72.3425 56.9314C71.5751 56.6478 70.9384 56.2555 70.4294 55.755C69.9218 55.254 69.5404 54.6651 69.2844 53.9888C69.0285 53.3134 68.9009 52.5865 68.9009 51.8085C68.9009 51.031 69.0285 50.3041 69.2844 49.6277C69.5404 48.9519 69.9218 48.3663 70.4294 47.8728C70.9384 47.3789 71.5751 46.9895 72.3425 46.7059C73.11 46.4228 74.0054 46.2805 75.0277 46.2805Z" fill="#1D1D1B"/>
<path d="M47.5088 42.3853L46.0313 39.981H41.2733L42.1982 43.3372H47.5088H52.8193L53.7441 39.981H48.9862L47.5088 42.3853Z" fill="#1D1D1B"/>
</g>
<defs>
<radialGradient id="paint0_radial_4_78" cx="0" cy="0" r="1" gradientUnits="userSpaceOnUse" gradientTransform="translate(25 8) rotate(66.9606) scale(94.541)">
<stop stop-color="#FF0000"/>
<stop offset="0.0001" stop-color="#BF1A5F"/>
<stop offset="0.234375" stop-color="#EB256B"/>
<stop offset="0.401042" stop-color="#EA1638"/>
<stop offset="0.557292" stop-color="#E90909"/>
<stop offset="0.844037" stop-color="#FD0707"/>
<stop offset="0.9999" stop-color="#F4F833"/>
</radialGradient>
<clipPath id="clip0_4_78">
<rect width="67.3507" height="28.3582" fill="white" transform="translate(13.8232 33.3209)"/>
</clipPath>
</defs>
</svg>
