<svg width="1440" height="439" viewBox="0 0 1440 439" fill="none" xmlns="http://www.w3.org/2000/svg">
<path d="M1023.38 178.594C1187.06 90.6127 1180.06 561.546 1438.27 178.594L1438.27 -3.92493L689.395 -3.92492L-4.97213 -3.92493L-4.97215 313.022L-5.07929 350.966C234.555 304.777 318.551 -1.53237 458.823 206.18C675.756 527.41 859.704 266.574 1023.38 178.594Z" fill="white"/>
<path d="M1263.42 -59.709C380.211 454.217 595.101 -262.586 -45.8665 -335.058" stroke="#DADADA"/>
<path d="M1527.21 -71.0395C545.745 607.758 810.457 -308.056 117.687 -380.483" stroke="#DADADA"/>
<path d="M-26.6402 -78C423.391 194.534 -66.7291 161.298 -26.6402 383.978" stroke="#DADADA"/>
<path d="M-17.5885 -43.5379C453.213 240.535 -59.5277 205.892 -17.5885 438" stroke="#DADADA"/>
</svg>
