<svg width="35" height="34" viewBox="0 0 35 34" fill="none" xmlns="http://www.w3.org/2000/svg">
<path d="M5.19531 33.0859H34.4531V4.64844H5.74219V0.546875H5.19531C2.625 0.546875 0.546875 2.625 0.546875 5.19531V28.4375C0.546875 31.0078 2.625 33.0859 5.19531 33.0859ZM1.64062 5.19531C1.64062 3.41797 2.95312 1.94141 4.64844 1.69531V12.7148C4.64844 17.5 4.64844 22.2852 4.64844 23.8164C3.44531 23.9531 2.37891 24.5547 1.64062 25.4297V5.19531ZM1.64062 28.4375C1.64062 26.4688 3.22656 24.8828 5.19531 24.8828H5.74219V5.74219H33.3594V31.9922H5.19531C3.22656 31.9922 1.64062 30.4062 1.64062 28.4375Z" fill="white"/>
<path d="M30.625 13.9453H21.3281V13.3984H20.2344V15.0391H29.5312V28.1641H21.3281V18.3203H20.2344V28.1641H9.57031V15.0391H15.8594V13.125H14.7656V13.9453H9.57031V9.57031H20.2344V10.1172H21.3281V8.47656H8.47656V29.2578H30.625V13.9453Z" fill="white"/>
</svg>
