<svg width="31" height="29" viewBox="0 0 31 29" fill="none" xmlns="http://www.w3.org/2000/svg">
<path d="M29.0639 0.190414C28.7229 0.205371 28.3911 0.300259 28.0918 0.420101C27.7956 0.539142 26.0902 1.26702 23.5719 2.34373C21.0535 3.42045 17.7799 4.82255 14.5348 6.21288C8.04455 8.99352 1.66679 11.7295 1.66679 11.7295L1.71328 11.7117C1.71328 11.7117 1.32835 11.8404 0.938082 12.1123C0.74295 12.2482 0.533018 12.4238 0.361129 12.6797C0.18924 12.9356 0.063578 13.2982 0.110934 13.6818C0.27727 15.0291 1.67363 15.4113 1.67363 15.4113L1.6791 15.414L7.91074 17.5469C8.06962 18.0769 9.80082 23.855 10.1816 25.0787C10.392 25.7552 10.5888 26.1455 10.7941 26.4117C10.8969 26.5449 11.0046 26.648 11.1236 26.7234C11.1709 26.7534 11.2207 26.7759 11.2699 26.7959C11.271 26.7963 11.2716 26.7954 11.2727 26.7959C11.2787 26.7986 11.2844 26.7988 11.2904 26.8014L11.274 26.7973C11.2855 26.8019 11.2967 26.8096 11.3082 26.8137C11.3304 26.8214 11.344 26.8212 11.3725 26.8273C12.0861 27.0765 12.6768 26.614 12.6768 26.614L12.7014 26.5949L16.5295 23.0443L22.742 27.8883L22.8199 27.9238C23.9073 28.4066 24.8907 28.1373 25.4353 27.6941C25.98 27.251 26.1941 26.6797 26.1941 26.6797L26.2174 26.6195L30.7824 2.82635C30.8992 2.29405 30.9158 1.83393 30.8057 1.41815C30.6955 1.00237 30.4278 0.64094 30.092 0.440609C29.7561 0.240279 29.4048 0.175457 29.0639 0.190414ZM29.1008 1.61366C29.2392 1.60724 29.3419 1.62307 29.3742 1.64237C29.4066 1.66166 29.4211 1.65912 29.4521 1.77635C29.4832 1.89358 29.5 2.1405 29.4152 2.52694L29.4125 2.53514L24.8734 26.1902C24.8627 26.214 24.7681 26.4329 24.5521 26.6086C24.3318 26.7878 24.0868 26.9278 23.4365 26.6551L16.643 21.3572L16.4516 21.2068L16.4475 21.2109L14.4158 19.6865L25.8332 6.25389C25.9209 6.15094 25.977 6.02478 25.9945 5.89067C26.0121 5.75655 25.9904 5.62023 25.9321 5.49817C25.8738 5.37611 25.7814 5.27355 25.6661 5.20288C25.5508 5.13222 25.4174 5.09648 25.2822 5.09998C25.1501 5.10342 25.0216 5.14418 24.9117 5.21756L8.39062 16.2316L2.14941 14.0947C2.14941 14.0947 1.52966 13.7498 1.5 13.5096C1.49835 13.4962 1.49103 13.5083 1.52324 13.4603C1.55544 13.4124 1.63639 13.3314 1.73789 13.2607C1.94087 13.1193 2.17265 13.0338 2.17265 13.0338L2.19589 13.0256L2.21914 13.016C2.21914 13.016 8.59722 10.2799 15.0871 7.4994C18.332 6.10915 21.6051 4.70807 24.1228 3.63163C26.6399 2.55546 28.4587 1.78084 28.6127 1.71893C28.788 1.64872 28.9623 1.62007 29.1008 1.61366ZM21.5293 9.15506L12.8709 19.342L12.8668 19.3461C12.8533 19.3624 12.8405 19.3792 12.8285 19.3967C12.8148 19.4156 12.802 19.4352 12.7902 19.4555C12.7416 19.538 12.7104 19.6297 12.6986 19.7248C12.6986 19.7266 12.6986 19.7284 12.6986 19.7303L11.5707 24.8025C11.5519 24.7477 11.5388 24.7277 11.5187 24.6631V24.6617C11.1605 23.5106 9.52715 18.0613 9.30117 17.3076L21.5293 9.15506ZM13.8484 21.0113L15.4043 22.1789L13.1184 24.298L13.8484 21.0113Z" fill="white"/>
</svg>
