<svg width="31" height="31" viewBox="0 0 31 31" fill="none" xmlns="http://www.w3.org/2000/svg">
<path d="M29.7144 21.1624C30.4253 19.3741 30.8125 17.4578 30.8125 15.5142C30.8114 13.5094 30.4013 11.533 29.6466 9.69659C29.0942 8.35456 28.3636 7.08581 27.447 5.94612C21.7191 -1.58107 9.30281 -1.6281 3.55297 5.94612C2.58828 7.14925 1.82266 8.49347 1.26484 9.91972C0.567031 11.6927 0.1875 13.5903 0.1875 15.5142C0.1875 17.4578 0.574687 19.373 1.28562 21.1602C1.84344 22.5667 2.59922 23.8935 3.55297 25.0813C9.32469 32.6533 21.683 32.65 27.447 25.0824C28.4008 23.8957 29.1566 22.5689 29.7144 21.1624ZM27.9348 19.7219H22.465C22.6903 18.6949 22.8347 17.6558 22.8948 16.608H28.5791C28.4927 17.681 28.2728 18.7222 27.9348 19.7219ZM3.06406 11.311H8.41906C8.20031 12.3325 8.06141 13.3705 8.00453 14.4205H2.41984C2.50734 13.3508 2.72609 12.3096 3.06406 11.311ZM28.5802 14.4205H22.9047C22.8533 13.3705 22.7188 12.3325 22.5055 11.311H27.9348C28.2739 12.3096 28.4927 13.3497 28.5802 14.4205ZM20.715 14.4205H16.5938V11.311H20.2742C20.5116 12.3172 20.6548 13.3541 20.715 14.4205ZM16.5938 9.12347V3.97409C17.88 5.50972 18.8972 7.25206 19.6038 9.12347H16.5938ZM14.4062 9.12347H11.3372C12.0591 7.2455 13.0938 5.49768 14.4062 3.95768V9.12347ZM14.4062 11.311V14.4205H10.192C10.2555 13.3683 10.4053 12.3292 10.6514 11.311H14.4062ZM2.42094 16.6091H8.00562C8.0625 17.6602 8.2025 18.6992 8.42125 19.723H3.06625C2.72719 18.7222 2.50734 17.681 2.42094 16.6091ZM10.192 16.6091H14.4062V19.723H10.6525C10.4053 18.7025 10.2555 17.6624 10.192 16.6091ZM14.4062 21.9094V27.0708C13.0981 25.5352 12.0612 23.7863 11.3383 21.9094H14.4062ZM16.5938 21.9094H19.5305C18.8272 23.7053 17.8341 25.3777 16.5938 26.8586V21.9094ZM16.5938 19.7219V16.608H20.7073C20.6384 17.6624 20.4831 18.7025 20.2316 19.7219H16.5938ZM21.9323 9.12347C21.9291 9.11253 21.9269 9.10268 21.9236 9.09175C21.1525 6.77518 19.9483 4.62268 18.3908 2.72722C21.2641 3.37143 23.8519 4.96503 25.7419 7.31659C26.2034 7.89081 26.6103 8.49456 26.9636 9.12347H21.9323ZM12.5841 2.73487C11.0255 4.61175 9.80812 6.7555 9.02172 9.06769C9.01516 9.08628 9.01188 9.10487 9.00531 9.12237H4.03641C4.38969 8.49347 4.79656 7.88972 5.25813 7.3155C7.13719 4.97815 9.70531 3.38675 12.5841 2.73487ZM9.00641 21.9094C9.01188 21.9269 9.01625 21.9444 9.02172 21.9619C9.80594 24.2697 11.0222 26.4124 12.5819 28.2925C9.71953 27.6428 7.13828 26.0536 5.25813 23.7119C4.79766 23.1388 4.39187 22.5361 4.03969 21.9105H9.00641V21.9094ZM18.2136 28.3319C19.8105 26.4419 21.0562 24.2708 21.8602 21.9313C21.8623 21.9247 21.8645 21.9171 21.8667 21.9094H26.9614C26.6081 22.5361 26.2023 23.1388 25.7419 23.7119C23.8158 26.1105 21.1645 27.7128 18.2136 28.3319Z" fill="#2A80AD"/>
</svg>
